# xmcd
#
# Track frame offsets:
#	150
#	12187
#	48667
#	80315
#	113248
#	148559
#	174633
#	203426
#	236063
#	268128
#	302926
#
# Disc length: 4585 seconds
#
# Revision: 0
# Processed by: cddbd v1.5.2PL0 Copyright (c) Steve Scherf et al.
# Submitted via: EasyCDDAExtractor 9.0.0.1
#
DISCID=9411e70b
DTITLE=Black Sabbath - The Palace Auburn Hills 15-02-99 Master Disc 1
DYEAR=1999
DGENRE=Hard Rock
TTITLE0=Sabbath Intro
TTITLE1=War Pigs
TTITLE2=NIB
TTITLE3=Fairies Wear Boots
TTITLE4=After Forever
TTITLE5=Electric Funeral
TTITLE6=Sweet Leaf
TTITLE7=Into The Void
TTITLE8=Snowblind
TTITLE9=Dirty Women
TTITLE10=Black Sabbath
EXTD=
EXTT0=
EXTT1=
EXTT2=
EXTT3=
EXTT4=
EXTT5=
EXTT6=
EXTT7=
EXTT8=
EXTT9=
EXTT10=
PLAYORDER=
